<?xml version="1.0" encoding="UTF-8" standalone="no"?>
<!-- Generator: Adobe Illustrator 19.0.0, SVG Export Plug-In . SVG Version: 6.00 Build 0)  -->

<svg
   xmlns:dc="http://purl.org/dc/elements/1.1/"
   xmlns:cc="http://creativecommons.org/ns#"
   xmlns:rdf="http://www.w3.org/1999/02/22-rdf-syntax-ns#"
   xmlns:svg="http://www.w3.org/2000/svg"
   xmlns="http://www.w3.org/2000/svg"
   xmlns:sodipodi="http://sodipodi.sourceforge.net/DTD/sodipodi-0.dtd"
   xmlns:inkscape="http://www.inkscape.org/namespaces/inkscape"
   version="1.1"
   id="Capa_1"
   x="0px"
   y="0px"
   viewBox="0 0 512 512"
   style="enable-background:new 0 0 512 512;"
   xml:space="preserve"
   sodipodi:docname="icon_foreground.svg"
   inkscape:version="0.92.3 (2405546, 2018-03-11)"><metadata
   id="metadata97"><rdf:RDF><cc:Work
       rdf:about=""><dc:format>image/svg+xml</dc:format><dc:type
         rdf:resource="http://purl.org/dc/dcmitype/StillImage" /><dc:title></dc:title></cc:Work></rdf:RDF></metadata><defs
   id="defs95" /><sodipodi:namedview
   pagecolor="#ffffff"
   bordercolor="#666666"
   borderopacity="1"
   objecttolerance="10"
   gridtolerance="10"
   guidetolerance="10"
   inkscape:pageopacity="0"
   inkscape:pageshadow="2"
   inkscape:window-width="1366"
   inkscape:window-height="705"
   id="namedview93"
   showgrid="false"
   inkscape:zoom="1.0299072"
   inkscape:cx="227.99043"
   inkscape:cy="256"
   inkscape:window-x="-8"
   inkscape:window-y="-8"
   inkscape:window-maximized="1"
   inkscape:current-layer="Capa_1" />
<linearGradient
   id="SVGID_1_"
   gradientUnits="userSpaceOnUse"
   x1="256"
   y1="506.777"
   x2="256"
   y2="-1.37"
   gradientTransform="matrix(1 0 0 -1 0 514)">
	<stop
   offset="0"
   style="stop-color:#C2ECDE"
   id="stop2" />
	<stop
   offset="1"
   style="stop-color:#CAD1A8"
   id="stop4" />
</linearGradient>

<linearGradient
   id="SVGID_2_"
   gradientUnits="userSpaceOnUse"
   x1="256"
   y1="502.89"
   x2="256"
   y2="2.68"
   gradientTransform="matrix(1 0 0 -1 0 514)">
	<stop
   offset="0"
   style="stop-color:#85D8BD"
   id="stop9" />
	<stop
   offset="1"
   style="stop-color:#A2AF5F"
   id="stop11" />
</linearGradient>

<linearGradient
   id="SVGID_3_"
   gradientUnits="userSpaceOnUse"
   x1="253.7811"
   y1="268.3011"
   x2="480.951"
   y2="41.1411"
   gradientTransform="matrix(1 0 0 -1 0 514)">
	<stop
   offset="0"
   style="stop-color:#669457"
   id="stop16" />
	<stop
   offset="1"
   style="stop-color:#A2AF5F;stop-opacity:0"
   id="stop18" />
</linearGradient>
<path
   style="fill:url(#SVGID_3_);"
   d="M512,237.83v155.94C512,459.07,459.07,512,393.77,512H254L118.93,376.93l266.08-266.09  L512,237.83z"
   id="path21" />
<path
   style="opacity:0.3;fill:#1A1A1A;enable-background:new    ;"
   d="M261,78.956C160.46,78.956,78.956,160.46,78.956,261  S160.46,443.044,261,443.044S443.044,361.54,443.044,261S361.54,78.956,261,78.956z"
   id="path23" />
<g
   id="g31">
	<circle
   style="fill:#FFFFFF;"
   cx="256"
   cy="240.02"
   r="182.04"
   id="circle25" />
	<path
   style="fill:#FFFFFF;"
   d="M188.205,346.996c19.602,12.449,42.855,19.663,67.795,19.663   c69.94,0,126.637-56.697,126.637-126.637c0-24.94-7.214-48.194-19.663-67.796L188.205,346.996z"
   id="path27" />
	<path
   style="fill:#FFFFFF;"
   d="M323.796,133.048c-19.602-12.449-42.855-19.663-67.796-19.663   c-69.94,0-126.637,56.697-126.637,126.637c0,24.94,7.214,48.194,19.663,67.795L323.796,133.048z"
   id="path29" />
</g>
<g
   id="g37">
	<path
   style="opacity:0.3;fill:#1A1A1A;enable-background:new    ;"
   d="M373.196,191.982c-2.837-6.912-6.262-13.52-10.222-19.756   l-174.77,174.77c6.236,3.96,12.844,7.385,19.756,10.222L373.196,191.982z"
   id="path33" />
	<path
   style="opacity:0.3;fill:#1A1A1A;enable-background:new    ;"
   d="M144.561,255.397   c-0.329-69.939,56.101-126.903,126.04-127.231c17.006-0.08,33.241,3.204,48.084,9.215l4.744-4.789   c-19.66-12.357-42.947-19.461-67.887-19.344c-69.939,0.329-126.369,57.292-126.04,127.231c0.117,24.94,7.441,48.159,19.982,67.702   l4.744-4.789C148.077,288.606,144.641,272.403,144.561,255.397z"
   id="path35" />
</g>
<linearGradient
   id="SVGID_4_"
   gradientUnits="userSpaceOnUse"
   x1="75.15"
   y1="258"
   x2="435.25"
   y2="258"
   gradientTransform="matrix(1 0 0 -1 0 514)">
	<stop
   offset="0"
   style="stop-color:#752522"
   id="stop39" />
	<stop
   offset="0.469"
   style="stop-color:#962724"
   id="stop41" />
	<stop
   offset="1"
   style="stop-color:#5C2220"
   id="stop43" />
</linearGradient>
<path
   style="fill:url(#SVGID_4_);"
   d="M256,73.956C155.46,73.956,73.956,155.46,73.956,256S155.46,438.044,256,438.044  S438.044,356.54,438.044,256S356.54,73.956,256,73.956z M256,129.363c24.94,0,48.194,7.214,67.796,19.663l-174.77,174.77  c-12.449-19.602-19.663-42.855-19.663-67.795C129.363,186.06,186.06,129.363,256,129.363z M256,382.637  c-24.94,0-48.194-7.214-67.795-19.663l174.77-174.77c12.449,19.602,19.663,42.855,19.663,67.796  C382.637,325.94,325.94,382.637,256,382.637z"
   id="path46" />
<linearGradient
   id="SVGID_5_"
   gradientUnits="userSpaceOnUse"
   x1="132.6187"
   y1="397.3588"
   x2="391.3387"
   y2="138.6388"
   gradientTransform="matrix(1 0 0 -1 0 514)">
	<stop
   offset="0"
   style="stop-color:#F7504D"
   id="stop48" />
	<stop
   offset="1"
   style="stop-color:#E24E4B"
   id="stop50" />
</linearGradient>
<path
   style="fill:url(#SVGID_5_);"
   d="M256,57.978c-100.54,0-182.044,81.504-182.044,182.044S155.46,422.067,256,422.067  s182.044-81.504,182.044-182.044S356.54,57.978,256,57.978z M256,113.385c24.94,0,48.194,7.214,67.796,19.663l-174.77,174.77  c-12.449-19.602-19.663-42.855-19.663-67.795C129.363,170.082,186.06,113.385,256,113.385z M256,366.659  c-24.94,0-48.194-7.214-67.795-19.663l174.77-174.77c12.449,19.602,19.663,42.855,19.663,67.796  C382.637,309.962,325.94,366.659,256,366.659z"
   id="path53" />
<linearGradient
   id="SVGID_6_"
   gradientUnits="userSpaceOnUse"
   x1="134.0291"
   y1="395.9491"
   x2="389.7891"
   y2="140.1891"
   gradientTransform="matrix(1 0 0 -1 0 514)">
	<stop
   offset="0"
   style="stop-color:#DE302D"
   id="stop55" />
	<stop
   offset="1"
   style="stop-color:#C9302D"
   id="stop57" />
</linearGradient>
<path
   style="fill:url(#SVGID_6_);"
   d="M256,420.066c-99.277,0-180.044-80.768-180.044-180.044  c0-99.277,80.768-180.045,180.044-180.045s180.044,80.768,180.044,180.045S355.277,420.066,256,420.066z M185.026,347.347  l2.106,1.338c20.577,13.067,44.391,19.975,68.868,19.975c70.931,0,128.637-57.707,128.637-128.637  c0-24.478-6.907-48.292-19.975-68.868l-1.338-2.106L185.026,347.347z M256,111.385c-70.931,0-128.637,57.707-128.637,128.638  c0,24.478,6.907,48.292,19.975,68.868l1.338,2.106l178.299-178.299l-2.106-1.338C304.291,118.292,280.477,111.385,256,111.385z"
   id="path60" />
<g
   id="g62">
</g>
<g
   id="g64">
</g>
<g
   id="g66">
</g>
<g
   id="g68">
</g>
<g
   id="g70">
</g>
<g
   id="g72">
</g>
<g
   id="g74">
</g>
<g
   id="g76">
</g>
<g
   id="g78">
</g>
<g
   id="g80">
</g>
<g
   id="g82">
</g>
<g
   id="g84">
</g>
<g
   id="g86">
</g>
<g
   id="g88">
</g>
<g
   id="g90">
</g>
</svg>